<svg width="1024" height="1024" viewBox="0 0 1024 1024" fill="none" xmlns="http://www.w3.org/2000/svg">
<g id="grammatical_elements/and">
<path id="Vector" d="M94.009 459.758C103.923 440.492 117.382 425.697 134.384 415.373C151.387 405.05 170.413 399.876 191.461 399.852C209.804 399.852 225.86 403.548 239.627 410.942C253.395 418.335 264.413 427.655 272.681 438.902V403.837H335.297V649.665H272.681V613.733C264.702 625.269 253.684 634.806 239.627 642.344C225.571 649.882 209.375 653.655 191.04 653.663C171.035 653.866 151.393 648.324 134.444 637.696C117.434 627.043 103.975 612.027 94.0692 592.649C84.163 573.27 79.1859 551.009 79.1377 525.866C79.1377 501.029 84.0948 478.993 94.009 459.758ZM263.795 487.935C258.294 477.569 249.991 468.957 239.832 463.082C229.995 457.371 218.815 454.382 207.44 454.424C196.016 454.304 184.777 457.324 174.952 463.155C165.127 468.986 157.092 477.404 151.724 487.49C145.663 498.295 142.633 511.087 142.633 525.866C142.633 540.645 145.663 553.606 151.724 564.748C157.253 575.267 165.536 584.086 175.687 590.264C185.247 596.081 196.225 599.152 207.416 599.139C218.791 599.18 229.971 596.192 239.808 590.481C249.951 584.584 258.233 575.955 263.71 565.579C269.619 554.79 272.577 541.849 272.585 526.757C272.593 511.665 269.635 498.725 263.71 487.935H263.795Z" fill="#50264B"/>
<path id="Vector_2" d="M603.185 428.027C621.231 446.49 630.254 472.299 630.254 505.454V649.663H568.132V513.883C568.132 494.367 563.251 479.356 553.489 468.847C543.728 458.339 530.418 453.089 513.56 453.097C496.404 453.097 482.87 458.347 472.955 468.847C463.041 479.348 458.084 494.359 458.084 513.883V649.663H395.962V403.835H458.084V434.457C466.52 423.706 477.397 415.12 489.814 409.41C503.099 403.249 517.593 400.135 532.236 400.295C561.505 400.295 585.155 409.539 603.185 428.027Z" fill="#50264B"/>
<path id="Vector_3" d="M688.162 459.758C698.076 440.492 711.611 425.697 728.766 415.373C746.041 404.994 765.86 399.621 786.011 399.852C801.858 399.812 817.505 403.378 831.769 410.28C846.267 417.224 857.807 426.455 866.389 437.975V321.305H929.39V649.665H866.329V613.288C858.622 625.41 847.825 635.171 833.937 642.573C820.049 649.974 803.925 653.671 785.566 653.663C765.5 653.845 745.798 648.306 728.766 637.696C711.611 627.043 698.076 612.027 688.162 592.649C678.248 573.27 673.295 551.009 673.303 525.866C673.303 501.029 678.256 478.993 688.162 459.758ZM857.948 487.935C852.45 477.571 844.151 468.959 833.997 463.082C824.156 457.37 812.972 454.382 801.593 454.424C790.174 454.308 778.943 457.33 769.124 463.161C759.305 468.992 751.276 477.408 745.913 487.49C739.844 498.295 736.81 511.087 736.81 525.866C736.81 540.645 739.824 553.606 745.853 564.748C751.375 575.272 759.659 584.093 769.816 590.264C779.371 596.082 790.346 599.152 801.533 599.139C812.911 599.181 824.096 596.193 833.937 590.481C844.091 584.604 852.39 575.992 857.887 565.627C863.812 554.838 866.77 541.898 866.762 526.806C866.754 511.713 863.796 498.757 857.887 487.935H857.948Z" fill="#50264B"/>
</g>
</svg>
