<?xml version="1.0" encoding="utf-8"?>
<!-- Generator: Adobe Illustrator 16.0.0, SVG Export Plug-In . SVG Version: 6.00 Build 0)  -->
<!DOCTYPE svg PUBLIC "-//W3C//DTD SVG 1.1//EN" "http://www.w3.org/Graphics/SVG/1.1/DTD/svg11.dtd">
<svg version="1.1" id="Layer_1" xmlns="http://www.w3.org/2000/svg" xmlns:xlink="http://www.w3.org/1999/xlink" x="0px" y="0px"
	 width="500px" height="500px" viewBox="0 0 500 500" enable-background="new 0 0 500 500" xml:space="preserve">
<g id="Layer_1_copy_81">
	<g>
		<g>
			<path fill="#FDDC1F" d="M472.001,248.187c0,127.437-103.305,230.738-230.737,230.738c-127.431,0-230.735-103.301-230.735-230.738
				c0-127.43,103.305-230.734,230.735-230.734C368.696,17.452,472.001,120.757,472.001,248.187z"/>
		</g>
		<g>
			<path fill="#FCB022" d="M241.264,482.385c-129.136,0-234.199-105.062-234.199-234.199S112.128,13.989,241.264,13.989
				c129.138,0,234.198,105.062,234.198,234.197C475.462,377.322,370.401,482.385,241.264,482.385z M241.264,20.915
				c-125.317,0-227.271,101.953-227.271,227.271c0,125.321,101.953,227.277,227.271,227.277
				c125.32,0,227.276-101.956,227.276-227.277C468.54,122.868,366.584,20.915,241.264,20.915z"/>
		</g>
	</g>
	<g>
		<path fill="#4C230D" d="M238.545,283.477c-4.398,0-7.594-1.515-9.721-3.072c-5.142-3.771-8.09-10.844-8.09-19.385
			c0-15.24,15.536-19.271,23.749-19.271c1.911,0,3.461,1.554,3.461,3.465s-1.546,3.46-3.453,3.46
			c-0.75,0.008-16.831,0.241-16.831,12.346c0,6.312,1.918,11.344,5.258,13.801c2.668,1.953,6.208,2.258,10.525,0.899
			c1.837-0.588,3.772,0.445,4.346,2.263c0.573,1.828-0.442,3.774-2.269,4.34C242.927,283.145,240.602,283.477,238.545,283.477z"/>
	</g>
	<g>
		<g>
			<path fill="#DEF2FD" d="M217.814,187.11c-0.623,41.977-26.832,75.637-58.552,75.162c-31.716-0.467-56.92-34.877-56.305-76.858
				c0.619-41.977,26.832-75.626,58.552-75.158C193.226,110.721,218.431,145.133,217.814,187.11z"/>
		</g>
		<g>
			<path fill="#C3E5F2" d="M159.921,264.585l-0.69-0.007c-32.937-0.487-59.213-36.018-58.583-79.199
				c0.634-42.699,27.643-77.438,60.204-77.438l0.69,0.005c16.081,0.236,31.032,8.69,42.106,23.805
				c10.931,14.918,16.777,34.593,16.473,55.393C219.491,229.848,192.482,264.585,159.921,264.585z M160.852,112.559
				c-30.052,0-54.99,32.696-55.582,72.89c-0.602,40.637,23.64,74.062,54.028,74.516l0.623,0.008
				c30.057,0,54.992-32.703,55.586-72.896c0.291-19.804-5.245-38.483-15.586-52.596c-10.191-13.919-23.852-21.703-38.446-21.917
				L160.852,112.559z"/>
		</g>
	</g>
	<g>
		<path fill="#010101" d="M180.762,194.703c-0.506,16.702-9.64,29.979-20.391,29.651c-10.759-0.326-19.068-14.126-18.565-30.827
			c0.506-16.705,9.636-29.979,20.395-29.655C172.955,164.195,181.264,177.999,180.762,194.703z"/>
	</g>
	<g>
		<g>
			<path fill="#DEF2FD" d="M256.622,181.331c-3.603,43.136,19.896,80.325,52.496,83.043c32.59,2.718,61.935-30.038,65.538-73.18
				c3.603-43.139-19.896-80.318-52.493-83.041C289.57,105.43,260.229,138.195,256.622,181.331z"/>
		</g>
		<g>
			<path fill="#C3E5F2" d="M312.898,266.844C312.895,266.844,312.898,266.844,312.898,266.844c-1.317,0-2.654-0.058-3.976-0.17
				c-16.501-1.374-31.271-11.119-41.577-27.435c-10.184-16.104-14.808-36.739-13.021-58.098
				c3.531-42.313,31.667-75.455,64.051-75.455c1.32,0,2.658,0.055,3.979,0.164c33.812,2.828,58.308,41.199,54.603,85.535
				C373.425,233.694,345.283,266.844,312.898,266.844z M318.376,110.303c-30.003,0-56.116,31.284-59.454,71.221
				c-1.697,20.367,2.676,39.988,12.326,55.253c9.518,15.062,23.031,24.043,38.062,25.296c1.189,0.106,2.396,0.155,3.59,0.155
				c30.003,0,56.122-31.291,59.461-71.228c3.485-41.8-19.114-77.933-50.389-80.548C320.779,110.354,319.573,110.303,318.376,110.303
				z"/>
		</g>
	</g>
	<g>
		<path fill="#010101" d="M293.88,192.864c-1.168,17.191,6.865,31.74,17.933,32.486c11.069,0.758,20.992-12.567,22.16-29.758
			c1.168-17.192-6.861-31.736-17.932-32.49C304.975,162.35,295.048,175.674,293.88,192.864z"/>
	</g>
	<g>
		<path fill="#4C230D" d="M233.584,441.305c-3.872,0-7.188-0.629-9.866-1.465c-7.723-2.385-11.997-6.908-12.179-7.092
			c-1.305-1.402-1.227-3.595,0.171-4.897c1.398-1.304,3.578-1.23,4.884,0.156c0.569,0.602,13.571,13.729,36.273,0.537
			c1.652-0.955,3.771-0.396,4.734,1.253c0.959,1.655,0.4,3.78-1.256,4.734C247.523,439.664,239.826,441.305,233.584,441.305z"/>
	</g>
	<g>
		<ellipse fill="#F3F3F3" cx="162.489" cy="180.042" rx="6.06" ry="6.222"/>
	</g>
	<g>
		<ellipse fill="#F3F3F3" cx="311.095" cy="180.042" rx="6.061" ry="6.222"/>
	</g>
	<g>
		<g>
			<path fill="#010101" d="M305.842,84.414c0,0-11.183-12.725-1.771-15.463c9.422-2.737,10.907,6.112,16.061,13.828
				c5.152,7.717,25.069,13.749,34.565,11.712C325.624,105.885,305.842,84.414,305.842,84.414z"/>
		</g>
		<g>
			<path fill="#010101" d="M337.728,100.132c-20.311,0-33.054-13.577-33.58-14.154c-1.303-1.477-7.521-8.931-5.874-14.575
				c0.455-1.578,1.727-3.671,5.158-4.667c1.369-0.4,2.672-0.6,3.872-0.6c6.246,0,9.031,5.165,11.725,10.161
				c0.927,1.723,1.886,3.503,3.021,5.202c3.988,5.969,18.923,11.084,28.354,11.084c1.45,0,2.73-0.117,3.807-0.348
				c1.172-0.253,2.347,0.442,2.697,1.592c0.344,1.15-0.251,2.376-1.369,2.815C349.622,98.959,343.634,100.132,337.728,100.132z
				 M307.304,70.75c-0.766,0-1.632,0.14-2.587,0.418c-1.714,0.499-1.934,1.246-2.015,1.525c-0.693,2.385,2.499,7.493,4.873,10.197
				c0.079,0.082,11.919,12.625,30.151,12.625c0.294,0,0.584-0.004,0.873-0.011c-8.523-2.231-17.062-6.46-20.391-11.443
				c-1.253-1.879-2.27-3.757-3.245-5.576C312.3,73.545,310.63,70.75,307.304,70.75z"/>
		</g>
	</g>
	<g>
		<g>
			<path fill="#010101" d="M162.841,84.414c0,0,11.183-12.725,1.766-15.463c-9.417-2.737-10.903,6.112-16.057,13.828
				c-5.156,7.717-25.069,13.749-34.567,11.712C143.059,105.885,162.841,84.414,162.841,84.414z"/>
		</g>
		<g>
			<path fill="#010101" d="M130.955,100.132h-0.003c-5.907,0-11.899-1.175-17.812-3.491c-1.119-0.439-1.714-1.665-1.366-2.815
				c0.347-1.15,1.515-1.842,2.696-1.592c1.076,0.231,2.356,0.348,3.808,0.348c9.428,0,24.365-5.115,28.354-11.085
				c1.133-1.697,2.092-3.477,3.023-5.2c2.689-4.996,5.478-10.161,11.724-10.161c1.2,0,2.502,0.2,3.868,0.598
				c3.433,0.998,4.703,3.091,5.16,4.669c1.646,5.645-4.572,13.098-5.833,14.535C164.005,86.555,151.265,100.132,130.955,100.132z
				 M130.077,95.505c0.291,0.007,0.581,0.011,0.875,0.011c18.231,0.001,30.073-12.544,30.19-12.669
				c2.405-2.746,5.534-7.755,4.833-10.153c-0.081-0.282-0.296-1.027-2.013-1.528c-5.1-1.482-6.972,1.248-10.245,7.321
				c-0.98,1.819-1.992,3.696-3.249,5.574C147.142,89.042,138.606,93.274,130.077,95.505z"/>
		</g>
	</g>
	<g>
		<path fill="#4C230D" d="M160.47,369.989c-0.283,0-0.574-0.036-0.859-0.106c-1.852-0.473-2.97-2.363-2.496-4.211
			c0.089-0.339,9.188-33.74,54.628-27.191c46.438,6.682,94.604,19.959,95.083,20.094c1.844,0.51,2.924,2.421,2.413,4.261
			c-0.509,1.841-2.42,2.924-4.261,2.414c-0.479-0.128-48.235-13.293-94.228-19.917c-16.68-2.398-29.671,0.65-38.596,9.087
			c-6.533,6.165-8.317,12.903-8.331,12.968C163.421,368.95,162.017,369.989,160.47,369.989z"/>
	</g>
	<g>
		<path fill="#EFE6CB" d="M388.518,394.527c-6.609,13.796-23.154,19.621-36.952,13.009l-8.327-3.981
			c-13.795-6.619-19.619-23.16-13.014-36.955l55.526-115.893c6.61-13.798,23.154-19.624,36.953-13.013l8.327,3.989
			c13.794,6.61,19.622,23.159,13.012,36.953L388.518,394.527z"/>
		<path fill="#4C230D" d="M363.515,413.723c-4.678,0-9.196-1.024-13.446-3.064l-8.323-3.984
			c-15.501-7.432-22.065-26.072-14.642-41.574l55.525-115.887c5.152-10.758,16.191-17.708,28.124-17.708
			c4.679,0,9.201,1.033,13.448,3.064l8.327,3.992c15.493,7.425,22.062,26.075,14.64,41.569l-55.529,115.894
			C386.487,406.779,375.444,413.723,363.515,413.723z M410.753,238.43c-9.283,0-17.872,5.404-21.877,13.77l-55.53,115.893
			c-5.773,12.054-0.661,26.556,11.39,32.339l8.322,3.985c3.31,1.577,6.826,2.385,10.457,2.385c9.283,0,17.868-5.407,21.882-13.772
			l55.525-115.887c5.772-12.054,0.665-26.556-11.388-32.337l-8.327-3.989C417.905,239.233,414.388,238.43,410.753,238.43z"/>
	</g>
	<g>
		<path fill="#AD866B" d="M404.727,360.695c-2.75,5.742-16.166,5.033-29.965-1.578l-8.327-3.983
			c-13.794-6.612-22.751-16.626-20.002-22.366l23.109-48.229c2.753-5.741,16.166-5.04,29.965,1.57l8.326,3.99
			c13.799,6.613,22.753,16.621,20.003,22.368L404.727,360.695z"/>
		<path fill="#4C230D" d="M395.348,368.043c-6.341,0-14.389-2.116-22.083-5.799l-8.327-3.991
			c-13.964-6.694-25.879-18.11-21.626-26.987l23.109-48.228c1.047-2.181,4.062-5.849,12.5-5.849c6.345,0,14.394,2.109,22.083,5.799
			l8.327,3.992c13.964,6.687,25.876,18.104,21.625,26.979l-23.105,48.229C406.8,364.376,403.784,368.043,395.348,368.043z
			 M378.921,284.115c-3.938,0-5.833,1.033-6.254,1.918l-23.112,48.228c-1.179,2.47,4.232,10.972,18.38,17.745l8.324,3.991
			c6.787,3.248,13.745,5.116,19.089,5.116c3.939,0,5.833-1.033,6.258-1.918l23.108-48.229c1.178-2.463-4.236-10.971-18.377-17.744
			l-8.327-3.992C391.218,285.98,384.265,284.115,378.921,284.115z"/>
	</g>
</g>
</svg>
