<?xml version="1.0" encoding="utf-8"?>
<!-- Generator: Adobe Illustrator 16.0.0, SVG Export Plug-In . SVG Version: 6.00 Build 0)  -->
<!DOCTYPE svg PUBLIC "-//W3C//DTD SVG 1.1//EN" "http://www.w3.org/Graphics/SVG/1.1/DTD/svg11.dtd">
<svg version="1.1" id="Layer_1" xmlns="http://www.w3.org/2000/svg" xmlns:xlink="http://www.w3.org/1999/xlink" x="0px" y="0px"
	 width="500px" height="500px" viewBox="0 0 500 500" enable-background="new 0 0 500 500" xml:space="preserve">
<g id="Layer_1_copy_80">
	<g>
		<g>
			<path fill="#F3BD78" d="M271.432,85.356c0,0,102.501,7.208,128.084-14.544c25.586-21.749,59.495,2.561,36.467,26.867
				c-23.033,24.31-90.429,48.375-100.593,34.209"/>
			<path fill="#27140E" d="M348.189,139.604c-0.989,0-1.942-0.031-2.864-0.095c-6.118-0.413-10.415-2.296-12.775-5.585
				c-1.126-1.568-0.769-3.754,0.8-4.881c1.572-1.126,3.754-0.764,4.882,0.803c1.056,1.474,3.745,2.427,7.57,2.687
				c20.551,1.391,68.558-17.112,87.64-37.258c7.831-8.265,8.892-17.022,2.823-23.424c-7.138-7.54-21.996-8.998-34.483,1.623
				c-26.367,22.419-126.348,15.671-130.598,15.371c-1.923-0.137-3.377-1.808-3.242-3.734c0.138-1.927,1.765-3.376,3.733-3.246
				c0.252,0.02,25.839,1.789,54.146,0.878c36.885-1.178,61.584-6.228,71.429-14.596c15.651-13.303,34.714-11.006,44.094-1.103
				c6.565,6.929,9.772,19.744-2.825,33.039C420.2,119.423,373.522,139.601,348.189,139.604z"/>
		</g>
		<g>
			<path fill="#F3BD78" d="M181.609,226.263c0,0,1.923,12.153,12.157,70.365S181.609,406.02,181.609,406.02
				s-10.23,47.979-74.844,46.702c-42.856-5.125-47.34-73.571-47.34-73.571S51.113,276.38,86.938,220.296
				c17.869-36.904,11.699-50.302,12.792-68.242c3.836-26.866,1.918-54.375,80.603-76.762c17.908-8.315,65.248,0,65.248,0
				s28.919,4.101,38.384,3.199c18.709-1.784,74.845,12.153,91.475,61.411c16.64,49.257,44.777,132.42,44.777,132.42
				s13.579,31.984-5.652,39.697c-16.436,6.996-23.129-7.713-23.129-7.713s15.729,29.701-11.137,36.734
				c-14.336,4.545-22.128-8.072-22.128-8.072s-10.238,23.156-31.983,10.36c-3.463-2.146-8.314-15.994-8.314-15.994
				s-14.079,15.994-33.907-3.198c-19.83-19.189-78.046-83.16-78.046-83.16s-22.387-21.528-36.459-20.682
				c-14.075,0.847-42.86-15.143-43.503-30.499"/>
			<path fill="#27140E" d="M109.247,456.243c-0.843,0-1.689-0.012-2.549-0.028c-0.118,0-0.231-0.007-0.347-0.022
				c-18.92-2.263-33.653-16.436-42.611-40.981c-6.575-18.014-7.757-35.115-7.804-35.832c-0.34-4.188-7.975-104.326,27.941-160.789
				c13.295-27.517,12.831-41.194,12.373-54.418c-0.134-3.951-0.274-8.04-0.012-12.33c0.005-0.094,0.017-0.189,0.028-0.279
				c0.256-1.789,0.484-3.573,0.716-5.366c3.322-25.905,6.753-52.689,82.136-74.194c18.862-8.481,65.103-0.5,67.064-0.157
				c0.174,0.023,28.501,4.011,37.447,3.167c20.965-2.025,78.146,13.504,95.119,63.77c16.641,49.258,44.779,132.422,44.779,132.422
				c0.26,0.582,8.474,20.23,2.884,33.681c-2.037,4.896-5.582,8.392-10.546,10.382c-6.835,2.909-12.479,2.578-16.9,0.774
				c0.853,4.96,0.883,10.612-1.37,15.733c-2.75,6.264-8.271,10.519-16.416,12.649c-9.967,3.175-17.856-0.97-22.505-5.413
				c-2.568,3.691-7.004,8.568-13.493,10.656c-6.482,2.084-13.472,0.969-20.768-3.326c-3.045-1.886-6.078-8.209-8.099-13.219
				c-2.789,1.827-6.88,3.732-12.006,3.938c-7.562,0.272-15.322-3.193-22.776-10.412c-19.685-19.045-77.62-82.678-78.199-83.32
				c-3.25-3.116-10.27-9.127-17.62-13.666c1.189,7.106,4.281,25.326,11.494,66.357c10.007,56.896-10.238,106.352-12.264,111.1
				c-0.539,2.222-3.714,13.699-13.925,25.064C161.082,443.247,142.35,456.243,109.247,456.243z M107.014,449.227
				c0.768,0.016,1.536,0.02,2.293,0.02c58.594,0.005,68.489-42.143,68.887-43.963c0.052-0.225,0.122-0.453,0.218-0.662
				c0.216-0.504,21.831-50.955,11.912-107.387c-10.124-57.582-12.149-70.307-12.165-70.424c-0.063-0.386-0.055-0.768,0.004-1.134
				c-3.085-1.292-6.004-2.048-8.497-1.891c-10.188,0.638-26.37-6.303-36.833-15.75c-6.535-5.901-10.12-12.157-10.368-18.089
				c-0.078-1.93,1.418-3.561,3.348-3.64c1.912-0.063,3.559,1.418,3.641,3.348c0.165,3.955,3.029,8.643,8.067,13.189
				c8.927,8.068,23.443,14.426,31.728,13.961c15.198-0.906,36.691,19.338,39.095,21.651c0.744,0.804,58.531,64.279,78.054,83.171
				c6.026,5.83,11.943,8.647,17.637,8.446c6.827-0.272,11.173-4.999,11.212-5.051c0.823-0.931,2.061-1.367,3.297-1.119
				c1.218,0.232,2.218,1.104,2.632,2.273c2.293,6.542,5.516,13.18,6.887,14.197c5.4,3.179,10.475,4.085,14.98,2.635
				c7.789-2.505,11.895-11.369,11.933-11.459c0.523-1.183,1.662-1.986,2.963-2.072c1.284-0.1,2.528,0.549,3.211,1.654
				c0.256,0.402,6.603,10.217,18.094,6.575c6.228-1.636,10.08-4.479,11.955-8.745c3.233-7.367-0.319-17.756-2.414-22.154
				c-0.193-0.358-0.371-0.714-0.523-1.057c-0.784-1.723-0.06-3.751,1.639-4.586c1.693-0.834,3.747-0.169,4.633,1.501
				c0.036,0.069,0.152,0.296,0.331,0.666c1.249,2.31,6.635,10.446,18.338,5.472c3.266-1.312,5.452-3.463,6.76-6.603
				c3.711-8.935-0.875-23.612-2.954-28.515c-0.094-0.248-28.237-83.411-44.878-132.668c-16.769-49.676-73.299-60.418-87.828-59.051
				c-9.758,0.945-38.011-3.049-39.208-3.214c-0.574-0.102-46.57-8.044-63.286-0.292c-0.165,0.079-0.338,0.142-0.515,0.189
				c-71.188,20.256-74.191,43.66-77.37,68.434c-0.229,1.776-0.456,3.55-0.709,5.318c-0.228,3.909-0.102,7.611,0.032,11.527
				c0.465,13.449,0.984,28.694-13.157,57.889c-0.061,0.122-0.127,0.244-0.201,0.358C55.094,276.639,62.83,377.85,62.916,378.865
				C62.959,379.575,67.707,444.337,107.014,449.227z"/>
		</g>
		<g>
			<path fill="#27140E" d="M391.715,308.08c-1.477,0-2.848-0.941-3.324-2.424l-24.934-77.14l-42.82-70.813
				c-1-1.65-0.473-3.802,1.184-4.802c1.649-0.997,3.801-0.469,4.798,1.182l43.033,71.161c0.142,0.236,0.256,0.48,0.339,0.74
				l25.055,77.523c0.591,1.839-0.418,3.81-2.253,4.403C392.436,308.025,392.069,308.08,391.715,308.08z"/>
		</g>
		<g>
			<path fill="#27140E" d="M358.171,336.461c-1.382,0-2.688-0.822-3.242-2.186l-37.585-92.886l-44.537-62.356
				c-1.123-1.568-0.758-3.75,0.811-4.876c1.568-1.119,3.755-0.76,4.882,0.811l44.778,62.695c0.157,0.225,0.292,0.469,0.397,0.721
				l37.738,93.273c0.726,1.788-0.141,3.823-1.93,4.554C359.054,336.379,358.609,336.461,358.171,336.461z"/>
		</g>
		<g>
			<path fill="#27140E" d="M317.875,330.829c-1.241,0-2.442-0.657-3.076-1.828l-43.881-80.768l-48.87-46.957
				c-1.392-1.34-1.438-3.554-0.1-4.944c1.339-1.395,3.554-1.438,4.947-0.099l49.259,47.335c0.26,0.249,0.477,0.536,0.648,0.852
				l44.142,81.245c0.922,1.698,0.292,3.821-1.402,4.743C319.011,330.695,318.439,330.829,317.875,330.829z"/>
		</g>
	</g>
</g>
</svg>
